<svg xmlns="http://www.w3.org/2000/svg" width="256" height="256" viewBox="0 0 100 100"><rect width="100" height="100" rx="20" fill="#e76e70"></rect><path d="M14.23 14.09L44.11 14.09Q44.38 14.54 44.65 15.31Q44.92 16.07 44.92 16.97L44.92 16.97Q44.92 18.50 44.20 19.40Q43.48 20.30 42.13 20.30L42.13 20.30L17.65 20.30L17.65 39.02L40.96 39.02Q41.23 39.47 41.50 40.23Q41.77 41 41.77 41.90L41.77 41.90Q41.77 43.43 41.05 44.33Q40.33 45.23 38.98 45.23L38.98 45.23L17.65 45.23L17.65 68.72Q17.20 68.90 16.25 69.08Q15.31 69.26 14.32 69.26L14.32 69.26Q10.27 69.26 10.27 66.02L10.27 66.02L10.27 18.05Q10.27 16.25 11.35 15.17Q12.43 14.09 14.23 14.09L14.23 14.09ZM64.00 59.54L64.00 59.54Q62.83 57.38 61.30 54.05Q59.77 50.72 58.10 46.58Q56.44 42.44 54.73 37.81Q53.02 33.17 51.49 28.40L51.49 28.40Q52.12 27.50 53.15 26.96Q54.19 26.42 55.36 26.42L55.36 26.42Q56.89 26.42 57.83 27.23Q58.78 28.04 59.50 29.93L59.50 29.93Q62.20 37.58 65.12 44.96Q68.05 52.34 71.74 60.44L71.74 60.44L72.10 60.44Q73.54 57.65 75.07 53.65Q76.60 49.64 78.08 45.14Q79.57 40.64 80.87 36.01Q82.18 31.37 83.17 27.14L83.17 27.14Q83.80 26.87 84.52 26.65Q85.24 26.42 86.23 26.42L86.23 26.42Q87.76 26.42 88.75 27.19Q89.74 27.95 89.74 29.48L89.74 29.48Q89.74 31.28 88.48 36.05Q87.22 40.82 85.19 46.76Q83.17 52.70 80.56 58.95Q77.95 65.21 75.25 70.07L75.25 70.07Q71.02 77.72 67.64 81.81Q64.27 85.91 61.39 85.91L61.39 85.91Q59.32 85.91 58.19 84.83Q57.07 83.75 56.80 82.31L56.80 82.31Q58.24 81.05 60.04 79.07Q61.84 77.09 63.64 74.80Q65.44 72.50 67.06 70.07Q68.68 67.64 69.76 65.39L69.76 65.39Q68.23 64.94 66.92 63.82Q65.62 62.69 64.00 59.54Z" fill="#fff"></path></svg>